# xmcd
#
# Track frame offsets:
#       150
#       14189
#       29058
#       43714
#       59870
#       77696
#       91020
#       107912
#       123597
#       139056
#       153930
#       165247
#       181360
#       199340
#       215327
#       230318
#       246910
#       262739
#       275916
#       292083
#       309234
#       324721
#       341117
#
# Disc length: 4785 seconds
#
# Revision: 0
# Processed by: cddbd v1.5.2PL0 Copyright (c) Steve Scherf et al.
# Submitted via: WaveLab 4.01
#
DISCID=5d12af17
DTITLE=Cover Hypes - Compilation
DYEAR=2007
DGENRE=Dance
TTITLE0=Andrew Spencer and The Vamprockerz - Zombie (2-4 Grooves remix)
TTITLE1=Ultra Flirt - Heaven is a plaze on earth (Tube Tonic and Dj Shandar remix)
TTITLE2=Kortezmann feat. Rozalla - Everybody's free
TTITLE3=Rave Allstars - The logical song
TTITLE4=Stee Wee Bee - A star (Megara vs. Dj Lee remix edit)
TTITLE5=Antares vs. Big Boom Society -  Ride on a meteorite
TTITLE6=Disco Bee - Someday (Dj Goldfingers NRG mix edit)
TTITLE7=Mike Red - Cold as Ice (Vinylshakers screen cut)
TTITLE8=Starting Rock feat. Diva Avari - Don't go
TTITLE9=Dj Tyson meets Royal Gigolos - Y.M.C.A.
TTITLE10=Richard Grey - Tainted love
TTITLE11=Comicoon - Komodo
TTITLE12=Apollo Brothers - One of us (Barcera vs. Roland Kenzo remix edit)
TTITLE13=Skydeelight - Always
TTITLE14=Jens O - Reason
TTITLE15=Studio 80 - What's up 2007
TTITLE16=Roland Kenzo - Everlasting love
TTITLE17=Kindervater feat. Nadja - Forever (The Real Booty Babes remix edit)
TTITLE18=Mike Brubek - Eternity
TTITLE19=Dj Andy Garcia vs. Hands up Squad and Clubraiders - Movin' on
TTITLE20=Dj Ostkurve - The Wanderer
TTITLE21=Molella - Originale radicale musicale (Dj MNS vs. Dj E-(Shit)Maxx remix)
TTITLE22=Punkrockerz - Punkrocker
EXTD=
EXTT0=
EXTT1=
EXTT2=
EXTT3=
EXTT4=
EXTT5=
EXTT6=
EXTT7=
EXTT8=
EXTT9=
EXTT10=
EXTT11=
EXTT12=
EXTT13=
EXTT14=
EXTT15=
EXTT16=
EXTT17=
EXTT18=
EXTT19=
EXTT20=
EXTT21=
EXTT22=
PLAYORDER=
